<svg width="40" height="40" viewBox="0 0 40 40" fill="none" xmlns="http://www.w3.org/2000/svg">
<g id="All">
<g id="Developer-Center">
<g id="Group-28">
<g id="Group-29">
<g id="Group-10">
<g id="Group-13">
<g id="Group-46">
<g id="Group-45">
<path id="Oval" d="M20 40C31.0457 40 40 31.0457 40 20C40 8.9543 31.0457 0 20 0C8.9543 0 0 8.9543 0 20C0 31.0457 8.9543 40 20 40Z" fill="#627EEA"/>
<path id="Path" d="M20.623 4.99727V16.0853L29.9943 20.2734L20.623 4.99727Z" fill="white" fill-opacity="0.602"/>
<path id="Path_1_" d="M20.6232 4.99727L11.252 20.2734L20.6232 16.0853V4.99727Z" fill="white"/>
<path id="Path_2_" d="M20.623 27.4576V34.9918L29.9998 22.0175L20.623 27.4576Z" fill="white" fill-opacity="0.602"/>
<path id="Path_3_" d="M20.6232 34.9918V27.4576L11.252 22.0175L20.6232 34.9918Z" fill="white"/>
<path id="Path_4_" d="M20.623 25.7135L29.9943 20.2734L20.623 16.0853V25.7135Z" fill="white" fill-opacity="0.2"/>
</g>
<path id="Path_5_" d="M11.252 20.2734L20.6232 25.7135V16.0853L11.252 20.2734Z" fill="white" fill-opacity="0.602"/>
</g>
</g>
</g>
</g>
</g>
</g>
</g>
</svg>
